<svg id="Icons" xmlns="http://www.w3.org/2000/svg" viewBox="0 0 66 66"><defs><style>.cls-1{fill:#416894;}.cls-2{fill:#4c7aae;}.cls-3{opacity:0.15;}.cls-4{fill:#fffcf2;}.cls-5{fill:#edc03d;}.cls-6{fill:#f3643f;}</style></defs><title>home</title><g id="Home"><g id="Circle_Shadow" data-name="Circle Shadow"><circle class="cls-1" cx="33" cy="34" r="31"/></g><g id="Circle"><circle class="cls-2" cx="33" cy="32" r="31"/></g><g id="Long_Shadow" data-name="Long Shadow"><polygon class="cls-3" points="21.02 35.84 21.02 31 17.66 32.48 21.02 35.84"/><path class="cls-3" d="M48.35,29.52l-3.6,1.78L21.56,47.41,36.9,62.75a31,31,0,0,0,25-19.63Z"/></g><g id="Home-2" data-name="Home"><path class="cls-4" d="M33,18,21,29V46a2,2,0,0,0,2,2H43a2,2,0,0,0,2-2V29Z"/></g><g id="Roof"><path class="cls-5" d="M48.34,29.53h0l-14-13h0a2,2,0,0,0-2.68,0h0l-14,13h0a2,2,0,1,0,2.68,2.95h0L33,20.73,45.65,32.48h0a2,2,0,1,0,2.68-2.95Z"/></g><g id="Door"><rect class="cls-6" x="29" y="36" width="8" height="12"/></g></g></svg>